HIERARCHY
ROOT Hips
{
	OFFSET -0.001795 -0.223333 0.028219
	CHANNELS 6 Xposition Yposition Zposition Zrotation Yrotation Xrotation 
	JOINT LeftUpLeg
	{
		OFFSET 0.069520 -0.091406 -0.006815
		CHANNELS 3 Zrotation Yrotation Xrotation
		JOINT LeftLeg
		{
			OFFSET 0.034277 -0.375199 -0.004496
			CHANNELS 3 Zrotation Yrotation Xrotation
			JOINT LeftFoot
			{
				OFFSET -0.013596 -0.397961 -0.043693
				CHANNELS 3 Zrotation Yrotation Xrotation
				JOINT LeftToe
				{
					OFFSET 0.026358 -0.055791 0.119288
					CHANNELS 3 Zrotation Yrotation Xrotation
					End Site
					{
						OFFSET 0.000000 0.000000 0.000000
					}
				}
			}
		}
	}
	JOINT RightUpLeg
	{
		OFFSET -0.067670 -0.090522 -0.004320
		CHANNELS 3 Zrotation Yrotation Xrotation
		JOINT RightLeg
		{
			OFFSET -0.038290 -0.382569 -0.008850
			CHANNELS 3 Zrotation Yrotation Xrotation
			JOINT RightFoot
			{
				OFFSET 0.015774 -0.398415 -0.042312
				CHANNELS 3 Zrotation Yrotation Xrotation
				JOINT RightToe
				{
					OFFSET -0.025372 -0.048144 0.123348
					CHANNELS 3 Zrotation Yrotation Xrotation
					End Site
					{
						OFFSET 0.000000 0.000000 0.000000
					}
				}
			}
		}
	}
	JOINT Spine
	{
		OFFSET -0.002533 0.108963 -0.026696
		CHANNELS 3 Zrotation Yrotation Xrotation
		JOINT Spine1
		{
			OFFSET 0.005487 0.135180 0.001092
			CHANNELS 3 Zrotation Yrotation Xrotation
			JOINT Spine2
			{
				OFFSET 0.001457 0.052922 0.025425
				CHANNELS 3 Zrotation Yrotation Xrotation
				JOINT Neck
				{
					OFFSET -0.002778 0.213870 -0.042857
					CHANNELS 3 Zrotation Yrotation Xrotation
					JOINT Head
					{
						OFFSET 0.005152 0.064970 0.051349
						CHANNELS 3 Zrotation Yrotation Xrotation
						End Site
						{
							OFFSET 0.000000 0.000000 0.000000
						}
					}
				}
				JOINT LeftShoulder
				{
					OFFSET 0.078845 0.121749 -0.034090
					CHANNELS 3 Zrotation Yrotation Xrotation
					JOINT LeftArm
					{
						OFFSET 0.090977 0.030469 -0.008868
						CHANNELS 3 Zrotation Yrotation Xrotation
						JOINT LeftForeArm
						{
							OFFSET 0.259612 -0.012772 -0.027456
							CHANNELS 3 Zrotation Yrotation Xrotation
							JOINT LeftHand
							{
								OFFSET 0.249234 0.008986 -0.001171
								CHANNELS 3 Zrotation Yrotation Xrotation
								End Site
								{
									OFFSET 0.000000 0.000000 0.000000
								}
							}
						}
					}
				}
				JOINT RightShoulder
				{
					OFFSET -0.081759 0.118833 -0.038615
					CHANNELS 3 Zrotation Yrotation Xrotation
					JOINT RightArm
					{
						OFFSET -0.096012 0.032551 -0.009143
						CHANNELS 3 Zrotation Yrotation Xrotation
						JOINT RightForeArm
						{
							OFFSET -0.253742 -0.013329 -0.021401
							CHANNELS 3 Zrotation Yrotation Xrotation
							JOINT RightHand
							{
								OFFSET -0.255298 0.007772 -0.005559
								CHANNELS 3 Zrotation Yrotation Xrotation
								End Site
								{
									OFFSET 0.000000 0.000000 0.000000
								}
							}
						}
					}
				}
			}
		}
	}
}
MOTION
Frames: 13
Frame Time: 0.050000
-0.495939 0.918036 -0.056977 -4.789827 -13.954306 11.421623 14.401476 2.181781 -26.869765 -5.034610 1.731422 20.388802 11.804634 21.417716 16.651362 0.000000 0.000000 0.000000 -20.611143 0.597409 -31.832082 -0.966435 0.727935 10.056054 -0.234756 -14.031758 39.273491 0.000000 0.000000 0.000000 2.174467 -0.703850 30.685131 0.617444 -0.253129 -4.870513 -3.311293 13.356391 5.055731 15.082402 -4.189821 -29.002706 0.000000 0.000000 0.000000 -13.669090 -23.882645 8.891987 -67.679694 -32.008400 11.314336 11.501759 -38.319633 -2.965081 0.000000 0.000000 0.000000 10.211793 12.990239 6.381458 81.493540 21.391214 10.200788 -23.678992 52.017304 -7.558285 0.000000 0.000000 0.000000 
-0.515210 0.925650 -0.054087 -4.649770 -12.741806 10.879168 13.812764 1.658505 -24.730831 -2.247377 0.630602 17.750052 10.819542 19.944158 18.824755 0.000000 0.000000 0.000000 -19.547676 0.576831 -30.622688 -1.215601 0.703786 9.295593 0.445430 -13.063232 39.080149 0.000000 0.000000 0.000000 2.530659 -0.938712 29.288792 0.814520 -0.324661 -5.424632 -3.485136 13.693030 5.384435 14.438831 -4.102646 -27.651479 0.000000 0.000000 0.000000 -13.211602 -22.539661 7.996614 -66.661453 -30.020106 9.674532 9.715094 -38.842188 -2.496371 0.000000 0.000000 0.000000 10.342351 12.958840 6.512083 82.621851 21.526012 10.728510 -22.013344 52.843778 -6.758504 0.000000 0.000000 0.000000 
-0.538892 0.929043 -0.050436 -4.756148 -12.208413 10.653788 14.045838 1.470805 -22.727752 0.073305 -0.104893 15.441919 10.169734 18.987800 20.556256 0.000000 0.000000 0.000000 -18.469900 0.667443 -29.845890 -1.544901 0.746242 9.166998 1.142162 -12.062066 38.178844 0.000000 0.000000 0.000000 2.451255 -0.970307 27.474311 0.431643 -0.168442 -5.623956 -3.192448 14.237373 5.143861 13.938764 -4.214221 -25.636490 0.000000 0.000000 0.000000 -13.308519 -21.249089 7.212118 -64.346875 -27.418992 7.661131 7.827000 -40.218459 -2.029562 0.000000 0.000000 0.000000 11.580442 12.142428 6.386440 82.461259 19.695262 9.214252 -19.437176 57.048524 -5.906143 0.000000 0.000000 0.000000 
-0.565184 0.930198 -0.045932 -4.420722 -11.170841 10.191193 14.062201 1.202393 -20.625092 2.304294 -0.692159 12.988805 9.234152 17.805747 21.965320 0.000000 0.000000 0.000000 -17.764304 0.628686 -28.742845 -1.606731 0.737874 9.003727 0.920532 -11.885105 36.693805 0.000000 0.000000 0.000000 2.753302 -1.110445 25.441520 0.438040 -0.165055 -5.189508 -3.624182 14.666932 5.307189 13.829850 -4.342774 -24.401338 0.000000 0.000000 0.000000 -14.016477 -20.782845 6.765935 -62.945633 -26.242690 6.763821 7.577018 -40.020120 -2.060884 0.000000 0.000000 0.000000 11.791542 11.678124 6.338902 83.275779 18.408435 8.483385 -17.726499 60.210854 -5.121768 0.000000 0.000000 0.000000 
-0.593053 0.930843 -0.041194 -4.277202 -10.622441 9.498599 14.445901 1.120056 -19.076797 4.352417 -1.159589 12.274763 8.321295 16.679386 23.808314 0.000000 0.000000 0.000000 -16.526097 0.722352 -27.790149 -2.315368 0.931732 9.926188 1.538007 -10.508378 33.820483 0.000000 0.000000 0.000000 2.993370 -1.174870 23.948503 -0.091566 0.052628 -4.765941 -3.149600 14.962675 5.661016 13.499305 -4.096390 -24.594952 0.000000 0.000000 0.000000 -13.604406 -19.670802 6.129664 -62.775421 -24.998089 5.917721 7.397927 -40.406533 -2.094450 0.000000 0.000000 0.000000 11.828438 10.926428 6.017441 84.338563 17.553750 8.080094 -17.438241 62.069989 -5.015251 0.000000 0.000000 0.000000 
-0.622130 0.931160 -0.035838 -3.948528 -8.739714 9.281436 14.584820 0.878194 -17.521750 6.751101 -1.549794 9.677812 6.752122 15.023123 25.480772 0.000000 0.000000 0.000000 -16.113893 0.564943 -27.106165 -1.992204 0.945125 11.037696 1.114141 -10.123776 31.363979 0.000000 0.000000 0.000000 3.460636 -1.350962 22.722325 -0.019319 0.038452 -4.034941 -3.532341 14.597115 5.421871 13.154605 -3.700514 -25.187494 0.000000 0.000000 0.000000 -12.331153 -18.618745 5.503276 -63.512450 -24.728028 5.702256 6.951733 -40.024239 -2.019228 0.000000 0.000000 0.000000 11.324486 10.193547 5.681198 85.582531 16.489849 7.719751 -14.932822 63.523641 -3.548944 0.000000 0.000000 0.000000 
-0.651942 0.931725 -0.029389 -4.159583 -7.686989 8.574986 14.926264 0.773675 -16.117400 9.693695 -2.057201 8.938169 5.341858 13.620936 27.623854 0.000000 0.000000 0.000000 -15.173870 0.573841 -26.289102 -1.141375 0.862420 12.332334 1.081965 -9.306966 28.589505 0.000000 0.000000 0.000000 4.186085 -1.542587 22.229661 -0.282349 0.154466 -3.547461 -3.569041 15.062620 5.473366 12.837692 -3.254565 -25.987961 0.000000 0.000000 0.000000 -11.188160 -18.132223 5.120854 -64.154289 -24.128565 5.205113 6.176817 -39.339987 -1.828808 0.000000 0.000000 0.000000 10.873122 9.885962 5.611846 85.822035 16.655092 8.226153 -13.219410 62.818186 -2.324103 0.000000 0.000000 0.000000 
-0.682615 0.931845 -0.021276 -4.248279 -6.012532 8.105033 15.741581 0.678535 -14.574870 11.716326 -2.214337 7.094151 3.708321 12.185368 29.569601 0.000000 0.000000 0.000000 -14.094746 0.560425 -25.446217 -0.412198 0.766476 13.632943 1.003267 -8.230160 25.233620 0.000000 0.000000 0.000000 4.656412 -1.678269 21.440476 0.091856 0.007841 -3.706475 -3.667629 15.471518 5.866641 13.068088 -3.055764 -26.881039 0.000000 0.000000 0.000000 -10.402914 -18.166278 4.953097 -65.308425 -23.451208 4.664534 4.932061 -38.783955 -1.491766 0.000000 0.000000 0.000000 10.845447 9.173654 5.441709 84.622646 16.166194 7.820784 -7.593216 62.463090 1.213231 0.000000 0.000000 0.000000 
-0.714019 0.931374 -0.011627 -4.310034 -4.270809 7.900902 16.263763 0.523496 -13.081350 14.237662 -2.289496 4.796526 2.038619 10.888304 31.686348 0.000000 0.000000 0.000000 -12.985062 0.568509 -24.886457 0.077266 0.641362 14.008608 1.245729 -6.973689 23.235497 0.000000 0.000000 0.000000 5.271450 -1.887825 21.374338 0.333439 -0.083249 -3.621438 -4.216462 15.179884 5.893304 13.350441 -2.962181 -27.640097 0.000000 0.000000 0.000000 -10.097519 -17.666700 4.638530 -65.336189 -22.898795 4.215631 3.176559 -39.263224 -0.975181 0.000000 0.000000 0.000000 10.132203 9.509610 5.582747 84.295369 16.261338 8.096387 -3.512931 62.012329 3.575337 0.000000 0.000000 0.000000 
-0.745411 0.930619 -0.001469 -3.990986 -2.253387 7.330575 17.627564 0.430627 -11.592825 14.555454 -2.022801 2.798506 0.398522 9.741022 33.366567 0.000000 0.000000 0.000000 -11.870355 0.555069 -23.664563 0.333057 0.562848 14.647366 1.119568 -6.041717 20.666411 0.000000 0.000000 0.000000 5.354282 -2.034663 21.902390 1.004721 -0.355277 -3.597901 -4.852670 14.327493 5.510708 15.042047 -3.323937 -29.744147 0.000000 0.000000 0.000000 -10.719681 -17.799109 4.576710 -65.621168 -21.656268 3.578470 2.730110 -40.077342 -0.914624 0.000000 0.000000 0.000000 11.242174 9.206445 5.661846 82.001422 16.439204 7.637795 2.694327 59.918170 6.863011 0.000000 0.000000 0.000000 
-0.775661 0.930210 0.007683 -3.744386 -0.285017 7.396741 18.834089 0.393155 -11.877946 11.854889 -1.831155 4.020149 3.976812 13.644863 30.564588 0.000000 0.000000 0.000000 -11.143555 0.518709 -22.828497 1.045373 0.334114 14.493426 1.246949 -4.837814 18.616933 0.000000 0.000000 0.000000 5.459126 -2.184058 22.171556 1.707887 -0.632758 -3.788146 -5.930645 13.541854 5.035242 16.598534 -3.981594 -29.918502 0.000000 0.000000 0.000000 -10.775128 -18.376745 4.741468 -65.277978 -22.003881 3.798939 1.781909 -40.336731 -0.626339 0.000000 0.000000 0.000000 11.267012 8.869492 5.566760 81.223650 16.313337 7.514492 8.811692 59.228457 10.196884 0.000000 0.000000 0.000000 
-0.802788 0.928618 0.014556 -3.555889 2.508049 7.491966 20.481067 0.422917 -13.642126 8.209795 -1.610803 6.852642 6.558898 16.670889 26.690886 0.000000 0.000000 0.000000 -10.772165 0.372742 -22.798846 1.731048 0.109612 16.225169 1.189460 -3.796893 16.538145 0.000000 0.000000 0.000000 5.618783 -2.458951 23.044117 2.685487 -1.016632 -3.967496 -7.169175 11.707282 4.579961 17.868086 -4.268264 -31.296985 0.000000 0.000000 0.000000 -10.740244 -18.240353 4.712502 -65.725387 -22.223953 4.012058 1.275220 -40.505391 -0.436859 0.000000 0.000000 0.000000 12.550580 8.577260 5.614523 78.226268 16.605347 6.909599 13.157688 58.528080 12.443865 0.000000 0.000000 0.000000 
-0.824581 0.925038 0.019452 -3.291333 3.178311 7.955538 23.392164 0.717887 -15.118886 1.806389 -0.762821 10.807952 6.628163 16.640876 24.369503 0.000000 0.000000 0.000000 -10.250679 0.416720 -24.632344 2.679714 -0.154537 18.487954 0.325115 -5.048701 15.911750 0.000000 0.000000 0.000000 5.409663 -2.677484 25.078644 2.806884 -0.999173 -4.946755 -7.831105 11.047947 3.445938 17.885495 -4.511562 -30.131635 0.000000 0.000000 0.000000 -12.312106 -19.212245 5.025372 -64.723153 -21.872495 4.170042 1.003916 -40.686914 -0.370854 0.000000 0.000000 0.000000 12.718061 8.123928 5.372015 76.609014 15.744754 5.999101 18.614453 58.446235 15.476060 0.000000 0.000000 0.000000 
